<svg width="24" height="24" viewBox="0 0 24 24" fill="none" xmlns="http://www.w3.org/2000/svg">
<mask id="mask0_1_1016" style="mask-type:alpha" maskUnits="userSpaceOnUse" x="0" y="0" width="24" height="24">
<rect width="24" height="24" fill="#D9D9D9"/>
</mask>
<g mask="url(#mask0_1_1016)">
<path d="M4.225 18.3248C3.525 17.4581 2.97917 16.4873 2.5875 15.4123C2.19583 14.3373 2 13.1998 2 11.9998C2 9.38314 2.8625 7.13314 4.5875 5.2498C6.3125 3.36647 8.45 2.2998 11 2.0498V4.0498C9 4.28314 7.33333 5.1498 6 6.6498C4.66667 8.1498 4 9.93314 4 11.9998C4 12.9331 4.14167 13.8123 4.425 14.6373C4.70833 15.4623 5.11667 16.2165 5.65 16.8998L4.225 18.3248ZM12 21.9998C10.7833 21.9998 9.63333 21.7998 8.55 21.3998C7.46667 20.9998 6.49167 20.4415 5.625 19.7248L7.025 18.2998C7.70833 18.8331 8.47083 19.2498 9.3125 19.5498C10.1542 19.8498 11.05 19.9998 12 19.9998C12.95 19.9998 13.8458 19.8498 14.6875 19.5498C15.5292 19.2498 16.2917 18.8331 16.975 18.2998L18.375 19.7248C17.5083 20.4415 16.5333 20.9998 15.45 21.3998C14.3667 21.7998 13.2167 21.9998 12 21.9998ZM19.775 18.3248L18.35 16.8998C18.8833 16.2165 19.2917 15.4623 19.575 14.6373C19.8583 13.8123 20 12.9331 20 11.9998C20 9.93314 19.3333 8.1498 18 6.6498C16.6667 5.1498 15 4.28314 13 4.0498V2.0498C15.55 2.2998 17.6875 3.36647 19.4125 5.2498C21.1375 7.13314 22 9.38314 22 11.9998C22 13.1998 21.8042 14.3373 21.4125 15.4123C21.0208 16.4873 20.475 17.4581 19.775 18.3248ZM9.5 16.4998V7.4998L16.5 11.9998L9.5 16.4998Z" fill="#F5F5F5" fill-opacity="0.75"/>
</g>
</svg>
